<?xml version="1.0" encoding="utf-8"?>
<!-- Generator: Adobe Illustrator 22.0.0, SVG Export Plug-In . SVG Version: 6.00 Build 0)  -->
<svg version="1.1" id="Layer_1" xmlns="http://www.w3.org/2000/svg" xmlns:xlink="http://www.w3.org/1999/xlink" x="0px" y="0px"
	 viewBox="0 0 72.9 72.9" style="enable-background:new 0 0 72.9 72.9;" xml:space="preserve">
<style type="text/css">
	.st0{fill:#F4932D;}
	.st1{fill:none;}
</style>
<g id="Group_205" transform="translate(-755.8 -231.3)">
	<g id="Group_55" transform="translate(612.3 -679.7)">
		<path class="st0" d="M180,911c-20.1,0-36.5,16.4-36.5,36.4c0,20.1,16.4,36.4,36.5,36.4s36.5-16.4,36.5-36.4
			C216.4,927.4,200,911,180,911z M180,914c18.4,0,33.5,15,33.5,33.4c0,8.1-2.9,15.6-7.7,21.4c-4.7-9.3-14.5-15.3-25.5-15.3
			c-11.1,0-21,6.1-25.7,15.5c-5-5.8-8-13.4-8-21.6C146.5,929,161.5,914,180,914z M156.6,971.4c0.1-0.1,0.1-0.2,0.2-0.3
			c3.9-8.9,13.1-14.6,23.3-14.6c10.2,0,19.4,5.7,23.3,14.6c0,0,0,0,0,0.1c-6,6-14.4,9.7-23.5,9.7
			C170.9,980.9,162.7,977.3,156.6,971.4z"/>
		<g id="Ellipse_27" transform="translate(168.7 925.7)">
			<g>
				<ellipse class="st1" cx="11.5" cy="11" rx="11.5" ry="11"/>
			</g>
			<g>
				<path class="st0" d="M11.5,22C5.2,22,0,17.1,0,11S5.2,0,11.5,0C17.8,0,23,4.9,23,11S17.8,22,11.5,22z M11.5,3C6.8,3,3,6.6,3,11
					s3.8,8,8.5,8c4.7,0,8.5-3.6,8.5-8S16.2,3,11.5,3z"/>
			</g>
		</g>
	</g>
</g>
</svg>
