<svg xmlns="http://www.w3.org/2000/svg" width="17.823" height="17.081" viewBox="0 0 17.823 17.081">
  <g id="Group_403" data-name="Group 403" transform="translate(-888 -699)">
    <path id="Path_320" data-name="Path 320" d="M889.485,702.713h13.367V704.2h1.485v-1.485a1.487,1.487,0,0,0-1.485-1.485h-.743v-.743h-1.485v.743H899.14V699H893.2v2.228h-1.485v-.743h-1.485v.743h-.743A1.487,1.487,0,0,0,888,702.713v8.912a1.487,1.487,0,0,0,1.485,1.485h2.97v-1.485h-2.97Zm5.2-2.228h2.971v.743h-2.971Z" fill="#757575"/>
    <path id="Path_321" data-name="Path 321" d="M896,718.4h1.485v-8.912H906.4V718.4h1.485V708H896Z" transform="translate(-2.059 -2.316)" fill="#757575"/>
    <rect id="Rectangle_1058" data-name="Rectangle 1058" width="5" height="1" transform="translate(896.823 709.081)" fill="#757575"/>
    <rect id="Rectangle_1059" data-name="Rectangle 1059" width="6" height="1" transform="translate(896.823 711.081)" fill="#757575"/>
    <rect id="Rectangle_1063" data-name="Rectangle 1063" width="6" height="1" transform="translate(896.823 713.081)" fill="#757575"/>
  </g>
</svg>
