<svg xmlns="http://www.w3.org/2000/svg" width="16.4" height="17.146" viewBox="0 0 16.4 17.146">
  <g id="Group_402" data-name="Group 402" transform="translate(-37 -126)">
    <rect id="Rectangle_1046" data-name="Rectangle 1046" width="1" height="1" transform="translate(40 136.146)" fill="#757575"/>
    <rect id="Rectangle_1047" data-name="Rectangle 1047" width="1" height="1" transform="translate(43 136.146)" fill="#757575"/>
    <rect id="Rectangle_1048" data-name="Rectangle 1048" width="1" height="1" transform="translate(46 136.146)" fill="#757575"/>
    <rect id="Rectangle_1049" data-name="Rectangle 1049" width="1" height="1" transform="translate(49 136.146)" fill="#757575"/>
    <rect id="Rectangle_1050" data-name="Rectangle 1050" width="1" height="1" transform="translate(43 133.146)" fill="#757575"/>
    <rect id="Rectangle_1051" data-name="Rectangle 1051" width="1" height="1" transform="translate(46 133.146)" fill="#757575"/>
    <rect id="Rectangle_1052" data-name="Rectangle 1052" width="1" height="1" transform="translate(49 133.146)" fill="#757575"/>
    <rect id="Rectangle_1053" data-name="Rectangle 1053" width="1" height="1" transform="translate(40 139.146)" fill="#757575"/>
    <rect id="Rectangle_1054" data-name="Rectangle 1054" width="1" height="1" transform="translate(43 139.146)" fill="#757575"/>
    <rect id="Rectangle_1055" data-name="Rectangle 1055" width="1" height="1" transform="translate(46 139.146)" fill="#757575"/>
    <rect id="Rectangle_1056" data-name="Rectangle 1056" width="1" height="1" transform="translate(49 139.146)" fill="#757575"/>
    <path id="Path_318" data-name="Path 318" d="M1433.4,1042.131h-1.491v9.691h-13.418v-9.691H1417v11.182h16.4Z" transform="translate(-1380 -910.167)" fill="#757575"/>
    <path id="Path_319" data-name="Path 319" d="M1417,1035.622v3.727h16.4v-3.727h-2.236v-1.491h-1.491v2.982h-.745v-1.491h-7.455v-1.491h-1.491v2.982h-.745v-1.491Z" transform="translate(-1380 -908.131)" fill="#757575"/>
  </g>
</svg>
