<svg xmlns="http://www.w3.org/2000/svg" width="22" height="24" viewBox="0 0 22 24">
  <g id="Group_92" data-name="Group 92" transform="translate(-1609 -458)">
    <path id="Path_140" data-name="Path 140" d="M1621,471a2,2,0,0,0-2-2h-2a2,2,0,0,0-2,2v2h6Z" fill="#3c3c3c"/>
    <circle id="Ellipse_34" data-name="Ellipse 34" cx="2" cy="2" r="2" transform="translate(1616 464)" fill="#3c3c3c"/>
    <path id="Path_141" data-name="Path 141" d="M1627,458h-18v24h18Zm-2,22h-14V460h14Z" fill="#3c3c3c"/>
    <path id="Path_142" data-name="Path 142" d="M1631,461a2,2,0,0,0-2-2h-1v2h1v2h-1v2h1v2h-1v2h1v2h-1v2h1a2,2,0,0,0,2-2v-2a1.938,1.938,0,0,1,0-2v-2a1.938,1.938,0,0,1,0-2Z" fill="#3c3c3c"/>
  </g>
</svg>
