<svg xmlns="http://www.w3.org/2000/svg" width="16" height="16" viewBox="0 0 16 16">
  <g id="Group_150" data-name="Group 150" transform="translate(-1512 -506)">
    <path id="Path_177" data-name="Path 177" d="M1519.333,519.961V522h1.333v-2.039a6.009,6.009,0,0,0,5.294-5.294H1528v-1.333h-2.039a6.009,6.009,0,0,0-5.294-5.294V506h-1.333v2.039a6.008,6.008,0,0,0-5.294,5.294H1512v1.333h2.039A6.008,6.008,0,0,0,1519.333,519.961Zm.667-10.627a4.667,4.667,0,1,1-4.667,4.667A4.672,4.672,0,0,1,1520,509.333Z" fill="#fff"/>
    <ellipse id="Ellipse_37" data-name="Ellipse 37" cx="2.085" cy="2.085" rx="2.085" ry="2.085" transform="translate(1517.915 510.125)" fill="#fff"/>
    <path id="Path_178" data-name="Path 178" d="M1522.62,522.464a3.9,3.9,0,0,0,3.47-2.134,2.837,2.837,0,0,0-1.324-.331h-4.293a2.837,2.837,0,0,0-1.324.331A3.9,3.9,0,0,0,1522.62,522.464Z" transform="translate(-2.62 -4.705)" fill="#fff"/>
  </g>
</svg>
