<?xml version="1.0" encoding="utf-8"?>
<!-- Generator: Adobe Illustrator 22.0.0, SVG Export Plug-In . SVG Version: 6.00 Build 0)  -->
<svg version="1.1" id="Layer_1" xmlns="http://www.w3.org/2000/svg" xmlns:xlink="http://www.w3.org/1999/xlink" x="0px" y="0px"
	 viewBox="0 0 13 12.7" style="enable-background:new 0 0 13 12.7;" xml:space="preserve">
<style type="text/css">
	.st0{fill:#3C3C3C;}
</style>
<g id="Group_258" transform="translate(-238.5 -1162.769)">
	<g id="Path_191">
		<path class="st0" d="M250.8,1175.5C250.8,1175.5,250.8,1175.5,250.8,1175.5h-11.6c-0.4,0-0.7-0.3-0.7-0.7v-2.9h1.4v2.1h10.1v-2.4
			h1.4v3.1c0,0.2-0.1,0.4-0.2,0.5S251,1175.5,250.8,1175.5z"/>
	</g>
	<path class="st0" d="M247.7,1168.5l-2,2v-7.7h-1.4v7.7l-2-2l-1,1l3.2,3.2c0.1,0.1,0.1,0.1,0.2,0.2c0,0,0,0,0,0c0.1,0,0.2,0,0.2,0
		c0,0,0,0,0,0c0.2,0,0.4-0.1,0.5-0.2l3.2-3.2L247.7,1168.5z"/>
</g>
</svg>
