<svg xmlns="http://www.w3.org/2000/svg" width="16" height="16" viewBox="0 0 16 16">
  <path id="Path_175" data-name="Path 175" d="M1478.818,459h-11.636a2.185,2.185,0,0,0-2.182,2.182v11.636a2.184,2.184,0,0,0,2.182,2.182h11.636a2.184,2.184,0,0,0,2.182-2.182V461.182A2.184,2.184,0,0,0,1478.818,459Zm-11.636,1.455h11.636a.728.728,0,0,1,.727.727v.426l-1.455,1.455-1.454-1.455-5.091,5.091-2.182-2.182-2.909,2.909v-6.244A.728.728,0,0,1,1467.182,460.455Zm9.455,13.091h-1.455v-8.426l1.455-1.455Zm-5.818-5.517v5.517h-1.455v-6.972Zm1.454,0,1.454-1.455v6.972h-1.454Zm-5.818,4.79v-3.335l1.455-1.455v5.517h-.727A.728.728,0,0,1,1466.454,472.818Zm12.364.727h-.727v-8.426l1.455-1.455v9.153A.728.728,0,0,1,1478.818,473.545Z" transform="translate(-1465 -459)" fill="#fff"/>
</svg>
