<svg xmlns="http://www.w3.org/2000/svg" width="22.707" height="22" viewBox="0 0 22.707 22">
  <g id="Group_94" data-name="Group 94" transform="translate(-3290.999 -1962)">
    <path id="Path_133" data-name="Path 133" d="M863,287H843.414L848,282.414l2,2,7-7,2,2,4.207-4.208-1.414-1.414L859,276.586l-2-2-7,7-2-2-5,5v-6.172l4-4,4.293,4.292,1.414-1.414L847,271.586l-4,4V267h-2v22h22Z" transform="translate(2449.999 1695)" fill="#3c3c3c"/>
    <path id="Path_134" data-name="Path 134" d="M858,282.586l-2.293-2.293-1.414,1.414L858,285.414l5.707-5.708-1.414-1.414Z" transform="translate(2449.999 1695)" fill="#3c3c3c"/>
  </g>
</svg>
