<svg id="Group_441" data-name="Group 441" xmlns="http://www.w3.org/2000/svg" width="70" height="70" viewBox="0 0 70 70">
  <circle id="Ellipse_20" data-name="Ellipse 20" cx="35" cy="35" r="35" fill="#f9ac19"/>
  <g id="Union_2" data-name="Union 2" transform="translate(17 17)" fill="none">
    <path d="M18,36A18,18,0,1,1,36,18V36Z" stroke="none"/>
    <path d="M 32 32 L 32 17.99933052062988 C 32 14.26033973693848 30.54367065429688 10.74493980407715 27.89929008483887 8.100689888000488 C 25.25477981567383 5.456319808959961 21.73891067504883 4 17.99933052062988 4 C 14.2603702545166 4 10.74493980407715 5.456289768218994 8.100620269775391 8.100620269775391 C 5.456289768218994 10.74493980407715 4 14.2603702545166 4 17.99933052062988 C 4 21.73891067504883 5.456319808959961 25.25477981567383 8.100689888000488 27.89929008483887 C 10.74493980407715 30.54367065429688 14.26033973693848 32 17.99933052062988 32 L 32 32 M 36 36 L 17.99933052062988 36 C 8.059399604797363 36 0 27.94061088562012 0 17.99933052062988 C 0 8.059399604797363 8.059399604797363 0 17.99933052062988 0 C 27.94061088562012 0 36 8.059399604797363 36 17.99933052062988 L 36 36 Z" stroke="none" fill="#fff"/>
  </g>
</svg>
